<svg width="1512" height="395" viewBox="0 0 1512 395" fill="none" xmlns="http://www.w3.org/2000/svg">
<path d="M193.179 0H262.09V392.198C262.09 393.302 261.194 394.198 260.09 394.198H195.179C194.075 394.198 193.179 393.302 193.179 392.198V0Z" fill="url(#paint0_linear_129_882)"/>
<path d="M560.028 0H628.939V392.198C628.939 393.302 628.043 394.198 626.939 394.198H562.028C560.924 394.198 560.028 393.302 560.028 392.198V0Z" fill="url(#paint1_linear_129_882)"/>
<path d="M341.135 0H410.046V392.198C410.046 393.302 409.15 394.198 408.046 394.198H343.135C342.03 394.198 341.135 393.302 341.135 392.198V0Z" fill="url(#paint2_linear_129_882)"/>
<path d="M707.984 0H776.894V392.198C776.894 393.302 775.999 394.198 774.894 394.198H709.984C708.879 394.198 707.984 393.302 707.984 392.198V0Z" fill="url(#paint3_linear_129_882)"/>
<path d="M47.2504 0H116.161V392.198C116.161 393.302 115.266 394.198 114.161 394.198H49.2504C48.1458 394.198 47.2504 393.302 47.2504 392.198V0Z" fill="url(#paint4_linear_129_882)"/>
<path d="M193.179 0H262.09V392.198C262.09 393.302 261.194 394.198 260.09 394.198H195.179C194.075 394.198 193.179 393.302 193.179 392.198V0Z" fill="url(#paint5_linear_129_882)"/>
<path d="M560.028 0H628.939V392.198C628.939 393.302 628.043 394.198 626.939 394.198H562.028C560.924 394.198 560.028 393.302 560.028 392.198V0Z" fill="url(#paint6_linear_129_882)"/>
<path d="M339.108 0H408.019V392.198C408.019 393.302 407.124 394.198 406.019 394.198H341.108C340.004 394.198 339.108 393.302 339.108 392.198V0Z" fill="url(#paint7_linear_129_882)"/>
<path d="M705.957 0H774.868V392.198C774.868 393.302 773.972 394.198 772.868 394.198H707.957C706.852 394.198 705.957 393.302 705.957 392.198V0Z" fill="url(#paint8_linear_129_882)"/>
<path d="M45.2235 0H114.134V392.198C114.134 393.302 113.239 394.198 112.134 394.198H47.2235C46.1189 394.198 45.2235 393.302 45.2235 392.198V0Z" fill="url(#paint9_linear_129_882)"/>
<path d="M266.144 0H335.054V392.198C335.054 393.302 334.159 394.198 333.054 394.198H268.144C267.039 394.198 266.144 393.302 266.144 392.198V0Z" fill="url(#paint10_linear_129_882)"/>
<path d="M632.993 0H701.904V392.198C701.904 393.302 701.008 394.198 699.904 394.198H634.993C633.888 394.198 632.993 393.302 632.993 392.198V0Z" fill="url(#paint11_linear_129_882)"/>
<path d="M-27.7408 0H41.17V392.198C41.17 393.302 40.2746 394.198 39.17 394.198H-25.7408C-26.8454 394.198 -27.7408 393.302 -27.7408 392.198V0Z" fill="url(#paint12_linear_129_882)"/>
<path d="M414.099 0H483.01V392.198C483.01 393.302 482.115 394.198 481.01 394.198H416.099C414.995 394.198 414.099 393.302 414.099 392.198V0Z" fill="url(#paint13_linear_129_882)"/>
<path d="M780.948 0H849.859V392.198C849.859 393.302 848.964 394.198 847.859 394.198H782.948C781.844 394.198 780.948 393.302 780.948 392.198V0Z" fill="url(#paint14_linear_129_882)"/>
<path d="M487.064 0H555.975V392.198C555.975 393.302 555.079 394.198 553.975 394.198H489.064C487.959 394.198 487.064 393.302 487.064 392.198V0Z" fill="url(#paint15_linear_129_882)"/>
<path d="M120.215 0H189.126V392.198C189.126 393.302 188.23 394.198 187.126 394.198H122.215C121.11 394.198 120.215 393.302 120.215 392.198V0Z" fill="url(#paint16_linear_129_882)"/>
<g filter="url(#filter0_d_129_882)">
<path d="M239.795 0H282.358V204.799C282.358 207.008 280.567 208.799 278.358 208.799H243.795C241.586 208.799 239.795 207.008 239.795 204.799V0Z" fill="black"/>
</g>
<g filter="url(#filter1_d_129_882)">
<path d="M606.644 0H649.207V204.799C649.207 207.008 647.416 208.799 645.207 208.799H610.644C608.435 208.799 606.644 207.008 606.644 204.799V0Z" fill="black"/>
</g>
<g filter="url(#filter2_d_129_882)">
<path d="M316.813 0H359.376V204.799C359.376 207.008 357.585 208.799 355.376 208.799H320.813C318.604 208.799 316.813 207.008 316.813 204.799V0Z" fill="black"/>
</g>
<g filter="url(#filter3_d_129_882)">
<path d="M683.662 0H726.225V204.799C726.225 207.008 724.434 208.799 722.225 208.799H687.662C685.453 208.799 683.662 207.008 683.662 204.799V0Z" fill="black"/>
</g>
<g filter="url(#filter4_d_129_882)">
<path d="M391.805 0H434.367V204.799C434.367 207.008 432.576 208.799 430.367 208.799H395.805C393.596 208.799 391.805 207.008 391.805 204.799V0Z" fill="black"/>
</g>
<g filter="url(#filter5_d_129_882)">
<path d="M758.653 0H801.216V204.799C801.216 207.008 799.425 208.799 797.216 208.799H762.653C760.444 208.799 758.653 207.008 758.653 204.799V0Z" fill="black"/>
</g>
<g filter="url(#filter6_d_129_882)">
<path d="M97.9202 0H140.483V204.799C140.483 207.008 138.692 208.799 136.483 208.799H101.92C99.711 208.799 97.9202 207.008 97.9202 204.799V0Z" fill="black"/>
</g>
<g filter="url(#filter7_d_129_882)">
<path d="M22.9287 0H65.4913V204.799C65.4913 207.008 63.7004 208.799 61.4913 208.799H26.9287C24.7196 208.799 22.9287 207.008 22.9287 204.799V0Z" fill="black"/>
</g>
<path d="M1075.97 0H1144.88V392.198C1144.88 393.302 1143.99 394.198 1142.88 394.198H1077.97C1076.87 394.198 1075.97 393.302 1075.97 392.198V0Z" fill="url(#paint17_linear_129_882)"/>
<path d="M1442.82 0H1511.73V392.198C1511.73 393.302 1510.84 394.198 1509.73 394.198H1444.82C1443.72 394.198 1442.82 393.302 1442.82 392.198V0Z" fill="url(#paint18_linear_129_882)"/>
<path d="M1223.93 0H1292.84V392.198C1292.84 393.302 1291.94 394.198 1290.84 394.198H1225.93C1224.82 394.198 1223.93 393.302 1223.93 392.198V0Z" fill="url(#paint19_linear_129_882)"/>
<path d="M930.044 0H998.955V392.198C998.955 393.302 998.059 394.198 996.955 394.198H932.044C930.939 394.198 930.044 393.302 930.044 392.198V0Z" fill="url(#paint20_linear_129_882)"/>
<path d="M1075.97 0H1144.88V392.198C1144.88 393.302 1143.99 394.198 1142.88 394.198H1077.97C1076.87 394.198 1075.97 393.302 1075.97 392.198V0Z" fill="url(#paint21_linear_129_882)"/>
<path d="M1442.82 0H1511.73V392.198C1511.73 393.302 1510.84 394.198 1509.73 394.198H1444.82C1443.72 394.198 1442.82 393.302 1442.82 392.198V0Z" fill="url(#paint22_linear_129_882)"/>
<path d="M856.183 0H925.094V392.198C925.094 393.302 924.199 394.198 923.094 394.198H858.183C857.079 394.198 856.183 393.302 856.183 392.198V0Z" fill="url(#paint23_linear_129_882)"/>
<path d="M1221.9 0H1290.81V392.198C1290.81 393.302 1289.92 394.198 1288.81 394.198H1223.9C1222.8 394.198 1221.9 393.302 1221.9 392.198V0Z" fill="url(#paint24_linear_129_882)"/>
<path d="M1148.94 0H1217.85V392.198C1217.85 393.302 1216.95 394.198 1215.85 394.198H1150.94C1149.83 394.198 1148.94 393.302 1148.94 392.198V0Z" fill="url(#paint25_linear_129_882)"/>
<path d="M1296.89 0H1365.8V392.198C1365.8 393.302 1364.91 394.198 1363.8 394.198H1298.89C1297.79 394.198 1296.89 393.302 1296.89 392.198V0Z" fill="url(#paint26_linear_129_882)"/>
<path d="M1369.86 0H1438.77V392.198C1438.77 393.302 1437.87 394.198 1436.77 394.198H1371.86C1370.75 394.198 1369.86 393.302 1369.86 392.198V0Z" fill="url(#paint27_linear_129_882)"/>
<path d="M1003.01 0H1071.92V392.198C1071.92 393.302 1071.02 394.198 1069.92 394.198H1005.01C1003.9 394.198 1003.01 393.302 1003.01 392.198V0Z" fill="url(#paint28_linear_129_882)"/>
<g filter="url(#filter8_d_129_882)">
<path d="M1122.59 0H1165.15V204.799C1165.15 207.008 1163.36 208.799 1161.15 208.799H1126.59C1124.38 208.799 1122.59 207.008 1122.59 204.799V0Z" fill="black"/>
</g>
<g filter="url(#filter9_d_129_882)">
<path d="M1199.61 0H1242.17V204.799C1242.17 207.008 1240.38 208.799 1238.17 208.799H1203.61C1201.4 208.799 1199.61 207.008 1199.61 204.799V0Z" fill="black"/>
</g>
<g filter="url(#filter10_d_129_882)">
<path d="M1274.6 0H1317.16V204.799C1317.16 207.008 1315.37 208.799 1313.16 208.799H1278.6C1276.39 208.799 1274.6 207.008 1274.6 204.799V0Z" fill="black"/>
</g>
<g filter="url(#filter11_d_129_882)">
<path d="M980.713 0H1023.28V204.799C1023.28 207.008 1021.48 208.799 1019.28 208.799H984.713C982.504 208.799 980.713 207.008 980.713 204.799V0Z" fill="black"/>
</g>
<g filter="url(#filter12_d_129_882)">
<path d="M905.722 0H948.284V204.799C948.284 207.008 946.493 208.799 944.284 208.799H909.722C907.513 208.799 905.722 207.008 905.722 204.799V0Z" fill="black"/>
</g>
<g filter="url(#filter13_d_129_882)">
<path d="M1489.44 0H1532V204.799C1532 207.008 1530.21 208.799 1528 208.799H1493.44C1491.23 208.799 1489.44 207.008 1489.44 204.799V0Z" fill="black"/>
</g>
<defs>
<filter id="filter0_d_129_882" x="238.295" y="0" width="45.5626" height="216.299" filterUnits="userSpaceOnUse" color-interpolation-filters="sRGB">
<feFlood flood-opacity="0" result="BackgroundImageFix"/>
<feColorMatrix in="SourceAlpha" type="matrix" values="0 0 0 0 0 0 0 0 0 0 0 0 0 0 0 0 0 0 127 0" result="hardAlpha"/>
<feOffset dy="6"/>
<feGaussianBlur stdDeviation="0.75"/>
<feComposite in2="hardAlpha" operator="out"/>
<feColorMatrix type="matrix" values="0 0 0 0 0 0 0 0 0 0 0 0 0 0 0 0 0 0 0.25 0"/>
<feBlend mode="normal" in2="BackgroundImageFix" result="effect1_dropShadow_129_882"/>
<feBlend mode="normal" in="SourceGraphic" in2="effect1_dropShadow_129_882" result="shape"/>
</filter>
<filter id="filter1_d_129_882" x="605.144" y="0" width="45.5625" height="216.299" filterUnits="userSpaceOnUse" color-interpolation-filters="sRGB">
<feFlood flood-opacity="0" result="BackgroundImageFix"/>
<feColorMatrix in="SourceAlpha" type="matrix" values="0 0 0 0 0 0 0 0 0 0 0 0 0 0 0 0 0 0 127 0" result="hardAlpha"/>
<feOffset dy="6"/>
<feGaussianBlur stdDeviation="0.75"/>
<feComposite in2="hardAlpha" operator="out"/>
<feColorMatrix type="matrix" values="0 0 0 0 0 0 0 0 0 0 0 0 0 0 0 0 0 0 0.25 0"/>
<feBlend mode="normal" in2="BackgroundImageFix" result="effect1_dropShadow_129_882"/>
<feBlend mode="normal" in="SourceGraphic" in2="effect1_dropShadow_129_882" result="shape"/>
</filter>
<filter id="filter2_d_129_882" x="315.313" y="0" width="45.5625" height="216.299" filterUnits="userSpaceOnUse" color-interpolation-filters="sRGB">
<feFlood flood-opacity="0" result="BackgroundImageFix"/>
<feColorMatrix in="SourceAlpha" type="matrix" values="0 0 0 0 0 0 0 0 0 0 0 0 0 0 0 0 0 0 127 0" result="hardAlpha"/>
<feOffset dy="6"/>
<feGaussianBlur stdDeviation="0.75"/>
<feComposite in2="hardAlpha" operator="out"/>
<feColorMatrix type="matrix" values="0 0 0 0 0 0 0 0 0 0 0 0 0 0 0 0 0 0 0.25 0"/>
<feBlend mode="normal" in2="BackgroundImageFix" result="effect1_dropShadow_129_882"/>
<feBlend mode="normal" in="SourceGraphic" in2="effect1_dropShadow_129_882" result="shape"/>
</filter>
<filter id="filter3_d_129_882" x="682.162" y="0" width="45.5625" height="216.299" filterUnits="userSpaceOnUse" color-interpolation-filters="sRGB">
<feFlood flood-opacity="0" result="BackgroundImageFix"/>
<feColorMatrix in="SourceAlpha" type="matrix" values="0 0 0 0 0 0 0 0 0 0 0 0 0 0 0 0 0 0 127 0" result="hardAlpha"/>
<feOffset dy="6"/>
<feGaussianBlur stdDeviation="0.75"/>
<feComposite in2="hardAlpha" operator="out"/>
<feColorMatrix type="matrix" values="0 0 0 0 0 0 0 0 0 0 0 0 0 0 0 0 0 0 0.25 0"/>
<feBlend mode="normal" in2="BackgroundImageFix" result="effect1_dropShadow_129_882"/>
<feBlend mode="normal" in="SourceGraphic" in2="effect1_dropShadow_129_882" result="shape"/>
</filter>
<filter id="filter4_d_129_882" x="390.305" y="0" width="45.5625" height="216.299" filterUnits="userSpaceOnUse" color-interpolation-filters="sRGB">
<feFlood flood-opacity="0" result="BackgroundImageFix"/>
<feColorMatrix in="SourceAlpha" type="matrix" values="0 0 0 0 0 0 0 0 0 0 0 0 0 0 0 0 0 0 127 0" result="hardAlpha"/>
<feOffset dy="6"/>
<feGaussianBlur stdDeviation="0.75"/>
<feComposite in2="hardAlpha" operator="out"/>
<feColorMatrix type="matrix" values="0 0 0 0 0 0 0 0 0 0 0 0 0 0 0 0 0 0 0.25 0"/>
<feBlend mode="normal" in2="BackgroundImageFix" result="effect1_dropShadow_129_882"/>
<feBlend mode="normal" in="SourceGraphic" in2="effect1_dropShadow_129_882" result="shape"/>
</filter>
<filter id="filter5_d_129_882" x="757.153" y="0" width="45.5625" height="216.299" filterUnits="userSpaceOnUse" color-interpolation-filters="sRGB">
<feFlood flood-opacity="0" result="BackgroundImageFix"/>
<feColorMatrix in="SourceAlpha" type="matrix" values="0 0 0 0 0 0 0 0 0 0 0 0 0 0 0 0 0 0 127 0" result="hardAlpha"/>
<feOffset dy="6"/>
<feGaussianBlur stdDeviation="0.75"/>
<feComposite in2="hardAlpha" operator="out"/>
<feColorMatrix type="matrix" values="0 0 0 0 0 0 0 0 0 0 0 0 0 0 0 0 0 0 0.25 0"/>
<feBlend mode="normal" in2="BackgroundImageFix" result="effect1_dropShadow_129_882"/>
<feBlend mode="normal" in="SourceGraphic" in2="effect1_dropShadow_129_882" result="shape"/>
</filter>
<filter id="filter6_d_129_882" x="96.4202" y="0" width="45.5626" height="216.299" filterUnits="userSpaceOnUse" color-interpolation-filters="sRGB">
<feFlood flood-opacity="0" result="BackgroundImageFix"/>
<feColorMatrix in="SourceAlpha" type="matrix" values="0 0 0 0 0 0 0 0 0 0 0 0 0 0 0 0 0 0 127 0" result="hardAlpha"/>
<feOffset dy="6"/>
<feGaussianBlur stdDeviation="0.75"/>
<feComposite in2="hardAlpha" operator="out"/>
<feColorMatrix type="matrix" values="0 0 0 0 0 0 0 0 0 0 0 0 0 0 0 0 0 0 0.25 0"/>
<feBlend mode="normal" in2="BackgroundImageFix" result="effect1_dropShadow_129_882"/>
<feBlend mode="normal" in="SourceGraphic" in2="effect1_dropShadow_129_882" result="shape"/>
</filter>
<filter id="filter7_d_129_882" x="21.4287" y="0" width="45.5626" height="216.299" filterUnits="userSpaceOnUse" color-interpolation-filters="sRGB">
<feFlood flood-opacity="0" result="BackgroundImageFix"/>
<feColorMatrix in="SourceAlpha" type="matrix" values="0 0 0 0 0 0 0 0 0 0 0 0 0 0 0 0 0 0 127 0" result="hardAlpha"/>
<feOffset dy="6"/>
<feGaussianBlur stdDeviation="0.75"/>
<feComposite in2="hardAlpha" operator="out"/>
<feColorMatrix type="matrix" values="0 0 0 0 0 0 0 0 0 0 0 0 0 0 0 0 0 0 0.25 0"/>
<feBlend mode="normal" in2="BackgroundImageFix" result="effect1_dropShadow_129_882"/>
<feBlend mode="normal" in="SourceGraphic" in2="effect1_dropShadow_129_882" result="shape"/>
</filter>
<filter id="filter8_d_129_882" x="1121.09" y="0" width="45.5625" height="216.299" filterUnits="userSpaceOnUse" color-interpolation-filters="sRGB">
<feFlood flood-opacity="0" result="BackgroundImageFix"/>
<feColorMatrix in="SourceAlpha" type="matrix" values="0 0 0 0 0 0 0 0 0 0 0 0 0 0 0 0 0 0 127 0" result="hardAlpha"/>
<feOffset dy="6"/>
<feGaussianBlur stdDeviation="0.75"/>
<feComposite in2="hardAlpha" operator="out"/>
<feColorMatrix type="matrix" values="0 0 0 0 0 0 0 0 0 0 0 0 0 0 0 0 0 0 0.25 0"/>
<feBlend mode="normal" in2="BackgroundImageFix" result="effect1_dropShadow_129_882"/>
<feBlend mode="normal" in="SourceGraphic" in2="effect1_dropShadow_129_882" result="shape"/>
</filter>
<filter id="filter9_d_129_882" x="1198.11" y="0" width="45.5625" height="216.299" filterUnits="userSpaceOnUse" color-interpolation-filters="sRGB">
<feFlood flood-opacity="0" result="BackgroundImageFix"/>
<feColorMatrix in="SourceAlpha" type="matrix" values="0 0 0 0 0 0 0 0 0 0 0 0 0 0 0 0 0 0 127 0" result="hardAlpha"/>
<feOffset dy="6"/>
<feGaussianBlur stdDeviation="0.75"/>
<feComposite in2="hardAlpha" operator="out"/>
<feColorMatrix type="matrix" values="0 0 0 0 0 0 0 0 0 0 0 0 0 0 0 0 0 0 0.25 0"/>
<feBlend mode="normal" in2="BackgroundImageFix" result="effect1_dropShadow_129_882"/>
<feBlend mode="normal" in="SourceGraphic" in2="effect1_dropShadow_129_882" result="shape"/>
</filter>
<filter id="filter10_d_129_882" x="1273.1" y="0" width="45.5625" height="216.299" filterUnits="userSpaceOnUse" color-interpolation-filters="sRGB">
<feFlood flood-opacity="0" result="BackgroundImageFix"/>
<feColorMatrix in="SourceAlpha" type="matrix" values="0 0 0 0 0 0 0 0 0 0 0 0 0 0 0 0 0 0 127 0" result="hardAlpha"/>
<feOffset dy="6"/>
<feGaussianBlur stdDeviation="0.75"/>
<feComposite in2="hardAlpha" operator="out"/>
<feColorMatrix type="matrix" values="0 0 0 0 0 0 0 0 0 0 0 0 0 0 0 0 0 0 0.25 0"/>
<feBlend mode="normal" in2="BackgroundImageFix" result="effect1_dropShadow_129_882"/>
<feBlend mode="normal" in="SourceGraphic" in2="effect1_dropShadow_129_882" result="shape"/>
</filter>
<filter id="filter11_d_129_882" x="979.213" y="0" width="45.5625" height="216.299" filterUnits="userSpaceOnUse" color-interpolation-filters="sRGB">
<feFlood flood-opacity="0" result="BackgroundImageFix"/>
<feColorMatrix in="SourceAlpha" type="matrix" values="0 0 0 0 0 0 0 0 0 0 0 0 0 0 0 0 0 0 127 0" result="hardAlpha"/>
<feOffset dy="6"/>
<feGaussianBlur stdDeviation="0.75"/>
<feComposite in2="hardAlpha" operator="out"/>
<feColorMatrix type="matrix" values="0 0 0 0 0 0 0 0 0 0 0 0 0 0 0 0 0 0 0.25 0"/>
<feBlend mode="normal" in2="BackgroundImageFix" result="effect1_dropShadow_129_882"/>
<feBlend mode="normal" in="SourceGraphic" in2="effect1_dropShadow_129_882" result="shape"/>
</filter>
<filter id="filter12_d_129_882" x="904.222" y="0" width="45.5625" height="216.299" filterUnits="userSpaceOnUse" color-interpolation-filters="sRGB">
<feFlood flood-opacity="0" result="BackgroundImageFix"/>
<feColorMatrix in="SourceAlpha" type="matrix" values="0 0 0 0 0 0 0 0 0 0 0 0 0 0 0 0 0 0 127 0" result="hardAlpha"/>
<feOffset dy="6"/>
<feGaussianBlur stdDeviation="0.75"/>
<feComposite in2="hardAlpha" operator="out"/>
<feColorMatrix type="matrix" values="0 0 0 0 0 0 0 0 0 0 0 0 0 0 0 0 0 0 0.25 0"/>
<feBlend mode="normal" in2="BackgroundImageFix" result="effect1_dropShadow_129_882"/>
<feBlend mode="normal" in="SourceGraphic" in2="effect1_dropShadow_129_882" result="shape"/>
</filter>
<filter id="filter13_d_129_882" x="1487.94" y="0" width="45.5625" height="216.299" filterUnits="userSpaceOnUse" color-interpolation-filters="sRGB">
<feFlood flood-opacity="0" result="BackgroundImageFix"/>
<feColorMatrix in="SourceAlpha" type="matrix" values="0 0 0 0 0 0 0 0 0 0 0 0 0 0 0 0 0 0 127 0" result="hardAlpha"/>
<feOffset dy="6"/>
<feGaussianBlur stdDeviation="0.75"/>
<feComposite in2="hardAlpha" operator="out"/>
<feColorMatrix type="matrix" values="0 0 0 0 0 0 0 0 0 0 0 0 0 0 0 0 0 0 0.25 0"/>
<feBlend mode="normal" in2="BackgroundImageFix" result="effect1_dropShadow_129_882"/>
<feBlend mode="normal" in="SourceGraphic" in2="effect1_dropShadow_129_882" result="shape"/>
</filter>
<linearGradient id="paint0_linear_129_882" x1="227.634" y1="0" x2="227.634" y2="394.198" gradientUnits="userSpaceOnUse">
<stop stop-color="#E1E1E1"/>
<stop offset="0.307733" stop-color="white"/>
</linearGradient>
<linearGradient id="paint1_linear_129_882" x1="594.483" y1="0" x2="594.483" y2="394.198" gradientUnits="userSpaceOnUse">
<stop stop-color="#E1E1E1"/>
<stop offset="0.307733" stop-color="white"/>
</linearGradient>
<linearGradient id="paint2_linear_129_882" x1="375.59" y1="0" x2="375.59" y2="394.198" gradientUnits="userSpaceOnUse">
<stop stop-color="#E1E1E1"/>
<stop offset="0.307733" stop-color="white"/>
</linearGradient>
<linearGradient id="paint3_linear_129_882" x1="742.439" y1="0" x2="742.439" y2="394.198" gradientUnits="userSpaceOnUse">
<stop stop-color="#E1E1E1"/>
<stop offset="0.307733" stop-color="white"/>
</linearGradient>
<linearGradient id="paint4_linear_129_882" x1="81.7058" y1="0" x2="81.7058" y2="394.198" gradientUnits="userSpaceOnUse">
<stop stop-color="#E1E1E1"/>
<stop offset="0.307733" stop-color="white"/>
</linearGradient>
<linearGradient id="paint5_linear_129_882" x1="227.634" y1="0" x2="227.634" y2="394.198" gradientUnits="userSpaceOnUse">
<stop stop-color="#E1E1E1"/>
<stop offset="0.307733" stop-color="white"/>
</linearGradient>
<linearGradient id="paint6_linear_129_882" x1="594.483" y1="0" x2="594.483" y2="394.198" gradientUnits="userSpaceOnUse">
<stop stop-color="#E1E1E1"/>
<stop offset="0.307733" stop-color="white"/>
</linearGradient>
<linearGradient id="paint7_linear_129_882" x1="373.564" y1="0" x2="373.564" y2="394.198" gradientUnits="userSpaceOnUse">
<stop stop-color="#E1E1E1"/>
<stop offset="0.307733" stop-color="white"/>
</linearGradient>
<linearGradient id="paint8_linear_129_882" x1="740.412" y1="0" x2="740.412" y2="394.198" gradientUnits="userSpaceOnUse">
<stop stop-color="#E1E1E1"/>
<stop offset="0.307733" stop-color="white"/>
</linearGradient>
<linearGradient id="paint9_linear_129_882" x1="79.6789" y1="0" x2="79.6789" y2="394.198" gradientUnits="userSpaceOnUse">
<stop stop-color="#E1E1E1"/>
<stop offset="0.307733" stop-color="white"/>
</linearGradient>
<linearGradient id="paint10_linear_129_882" x1="300.599" y1="0" x2="300.599" y2="394.198" gradientUnits="userSpaceOnUse">
<stop stop-color="#E1E1E1"/>
<stop offset="0.307733" stop-color="white"/>
</linearGradient>
<linearGradient id="paint11_linear_129_882" x1="667.448" y1="0" x2="667.448" y2="394.198" gradientUnits="userSpaceOnUse">
<stop stop-color="#E1E1E1"/>
<stop offset="0.307733" stop-color="white"/>
</linearGradient>
<linearGradient id="paint12_linear_129_882" x1="6.71458" y1="0" x2="6.71458" y2="394.198" gradientUnits="userSpaceOnUse">
<stop stop-color="#E1E1E1"/>
<stop offset="0.307733" stop-color="white"/>
</linearGradient>
<linearGradient id="paint13_linear_129_882" x1="448.555" y1="0" x2="448.555" y2="394.198" gradientUnits="userSpaceOnUse">
<stop stop-color="#E1E1E1"/>
<stop offset="0.307733" stop-color="white"/>
</linearGradient>
<linearGradient id="paint14_linear_129_882" x1="815.404" y1="0" x2="815.404" y2="394.198" gradientUnits="userSpaceOnUse">
<stop stop-color="#E1E1E1"/>
<stop offset="0.307733" stop-color="white"/>
</linearGradient>
<linearGradient id="paint15_linear_129_882" x1="521.519" y1="0" x2="521.519" y2="394.198" gradientUnits="userSpaceOnUse">
<stop stop-color="#E1E1E1"/>
<stop offset="0.307733" stop-color="white"/>
</linearGradient>
<linearGradient id="paint16_linear_129_882" x1="154.67" y1="0" x2="154.67" y2="394.198" gradientUnits="userSpaceOnUse">
<stop stop-color="#E1E1E1"/>
<stop offset="0.307733" stop-color="white"/>
</linearGradient>
<linearGradient id="paint17_linear_129_882" x1="1110.43" y1="0" x2="1110.43" y2="394.198" gradientUnits="userSpaceOnUse">
<stop stop-color="#E1E1E1"/>
<stop offset="0.307733" stop-color="white"/>
</linearGradient>
<linearGradient id="paint18_linear_129_882" x1="1477.28" y1="0" x2="1477.28" y2="394.198" gradientUnits="userSpaceOnUse">
<stop stop-color="#E1E1E1"/>
<stop offset="0.307733" stop-color="white"/>
</linearGradient>
<linearGradient id="paint19_linear_129_882" x1="1258.38" y1="0" x2="1258.38" y2="394.198" gradientUnits="userSpaceOnUse">
<stop stop-color="#E1E1E1"/>
<stop offset="0.307733" stop-color="white"/>
</linearGradient>
<linearGradient id="paint20_linear_129_882" x1="964.499" y1="0" x2="964.499" y2="394.198" gradientUnits="userSpaceOnUse">
<stop stop-color="#E1E1E1"/>
<stop offset="0.307733" stop-color="white"/>
</linearGradient>
<linearGradient id="paint21_linear_129_882" x1="1110.43" y1="0" x2="1110.43" y2="394.198" gradientUnits="userSpaceOnUse">
<stop stop-color="#E1E1E1"/>
<stop offset="0.307733" stop-color="white"/>
</linearGradient>
<linearGradient id="paint22_linear_129_882" x1="1477.28" y1="0" x2="1477.28" y2="394.198" gradientUnits="userSpaceOnUse">
<stop stop-color="#E1E1E1"/>
<stop offset="0.307733" stop-color="white"/>
</linearGradient>
<linearGradient id="paint23_linear_129_882" x1="890.639" y1="0" x2="890.639" y2="394.198" gradientUnits="userSpaceOnUse">
<stop stop-color="#E1E1E1"/>
<stop offset="0.307733" stop-color="white"/>
</linearGradient>
<linearGradient id="paint24_linear_129_882" x1="1256.36" y1="0" x2="1256.36" y2="394.198" gradientUnits="userSpaceOnUse">
<stop stop-color="#E1E1E1"/>
<stop offset="0.307733" stop-color="white"/>
</linearGradient>
<linearGradient id="paint25_linear_129_882" x1="1183.39" y1="0" x2="1183.39" y2="394.198" gradientUnits="userSpaceOnUse">
<stop stop-color="#E1E1E1"/>
<stop offset="0.307733" stop-color="white"/>
</linearGradient>
<linearGradient id="paint26_linear_129_882" x1="1331.35" y1="0" x2="1331.35" y2="394.198" gradientUnits="userSpaceOnUse">
<stop stop-color="#E1E1E1"/>
<stop offset="0.307733" stop-color="white"/>
</linearGradient>
<linearGradient id="paint27_linear_129_882" x1="1404.31" y1="0" x2="1404.31" y2="394.198" gradientUnits="userSpaceOnUse">
<stop stop-color="#E1E1E1"/>
<stop offset="0.307733" stop-color="white"/>
</linearGradient>
<linearGradient id="paint28_linear_129_882" x1="1037.46" y1="0" x2="1037.46" y2="394.198" gradientUnits="userSpaceOnUse">
<stop stop-color="#E1E1E1"/>
<stop offset="0.307733" stop-color="white"/>
</linearGradient>
</defs>
</svg>
