<svg width="4867" height="3051" viewBox="0 0 4867 3051" fill="none" xmlns="http://www.w3.org/2000/svg">
<path d="M0 38C0 17.0132 17.0132 0 38 0H4829C4849.99 0 4867 17.0132 4867 38V3012.29C4867 3033.27 4849.99 3050.29 4829 3050.29H37.9999C17.0131 3050.29 0 3033.27 0 3012.29V38Z" fill="#D99923"/>
<path d="M2793.24 978.355C2661.54 692.336 2437.6 462.178 2159.55 327.095C1881.51 192.013 1566.57 160.364 1268.41 237.543C970.239 314.721 707.289 495.951 524.36 750.352C341.43 1004.75 249.84 1316.59 265.194 1632.72C280.548 1948.85 401.897 2249.72 608.565 2484.07C815.232 2718.41 1094.43 2871.73 1398.59 2917.9C1702.75 2964.07 2013.05 2900.24 2276.61 2737.27C2540.18 2574.31 2740.71 2322.3 2844.03 2024.18L2512.48 1902.38C2436.52 2121.53 2289.12 2306.78 2095.37 2426.57C1901.62 2546.37 1673.52 2593.29 1449.94 2559.35C1226.35 2525.41 1021.11 2412.71 869.194 2240.44C717.273 2068.18 628.07 1847.01 616.783 1614.62C605.496 1382.23 672.824 1153 807.295 965.995C941.766 778.985 1135.06 645.764 1354.24 589.03C1573.42 532.297 1804.93 555.561 2009.32 654.86C2213.71 754.158 2378.33 923.347 2475.14 1133.6L2793.24 978.355Z" fill="#FCEDE0"/>
<path d="M2808.17 978.355C2674.53 692.336 2447.27 462.178 2165.12 327.095C1882.98 192.013 1563.39 160.364 1260.82 237.543C958.248 314.721 691.414 495.951 505.783 750.352C320.152 1004.75 227.209 1316.59 242.79 1632.72C258.371 1948.85 381.512 2249.72 591.232 2484.07C800.951 2718.41 1084.27 2871.73 1392.92 2917.9C1701.57 2964.07 2016.45 2900.24 2283.91 2737.27C2551.37 2574.31 2754.86 2322.3 2859.71 2024.18L2833.24 2014.6C2730.58 2306.5 2531.33 2553.26 2269.44 2712.83C2007.56 2872.4 1699.24 2934.91 1397.02 2889.7C1094.8 2844.49 817.386 2694.36 612.037 2464.9C406.687 2235.44 286.112 1940.84 270.856 1631.3C255.6 1321.75 346.606 1016.42 528.369 767.316C710.132 518.216 971.405 340.762 1267.67 265.192C1563.94 189.622 1876.86 220.611 2153.13 352.879C2429.4 485.146 2651.92 710.509 2782.77 990.567L2808.17 978.355Z" fill="#161515"/>
<path d="M2201.51 785H4867V2265.29H2091.46C2601.94 1881.2 2658.59 1289.64 2201.51 785Z" fill="#161515"/>
<path d="M2568.07 1567.2C2568.07 2124.61 2131.26 2576.48 1592.43 2576.48C1053.6 2576.48 616.786 2124.61 616.786 1567.2C616.786 1009.78 1053.6 557.911 1592.43 557.911C2131.26 557.911 2568.07 1009.78 2568.07 1567.2Z" fill="#161515"/>
</svg>
